<svg width="156" height="52" viewBox="0 0 156 52" fill="none" xmlns="http://www.w3.org/2000/svg">
<rect width="156" height="52" rx="8" fill="#212121"/>
<path d="M56.864 32.112C56.1173 32.112 55.4453 31.984 54.848 31.728C54.2507 31.4613 53.7813 31.088 53.44 30.608C53.0987 30.128 52.928 29.568 52.928 28.928H54.88C54.9227 29.408 55.1093 29.8027 55.44 30.112C55.7813 30.4213 56.256 30.576 56.864 30.576C57.4933 30.576 57.984 30.4267 58.336 30.128C58.688 29.8187 58.864 29.424 58.864 28.944C58.864 28.5707 58.752 28.2667 58.528 28.032C58.3147 27.7973 58.0427 27.616 57.712 27.488C57.392 27.36 56.944 27.2213 56.368 27.072C55.6427 26.88 55.0507 26.688 54.592 26.496C54.144 26.2933 53.76 25.984 53.44 25.568C53.12 25.152 52.96 24.5973 52.96 23.904C52.96 23.264 53.12 22.704 53.44 22.224C53.76 21.744 54.208 21.376 54.784 21.12C55.36 20.864 56.0267 20.736 56.784 20.736C57.8613 20.736 58.7413 21.008 59.424 21.552C60.1173 22.0853 60.5013 22.8213 60.576 23.76H58.56C58.528 23.3547 58.336 23.008 57.984 22.72C57.632 22.432 57.168 22.288 56.592 22.288C56.0693 22.288 55.6427 22.4213 55.312 22.688C54.9813 22.9547 54.816 23.3387 54.816 23.84C54.816 24.1813 54.9173 24.464 55.12 24.688C55.3333 24.9013 55.6 25.072 55.92 25.2C56.24 25.328 56.6773 25.4667 57.232 25.616C57.968 25.8187 58.5653 26.0213 59.024 26.224C59.4933 26.4267 59.888 26.7413 60.208 27.168C60.5387 27.584 60.704 28.144 60.704 28.848C60.704 29.4133 60.5493 29.9467 60.24 30.448C59.9413 30.9493 59.4987 31.3547 58.912 31.664C58.336 31.9627 57.6533 32.112 56.864 32.112ZM62.2483 27.552C62.2483 26.6667 62.4296 25.8827 62.7923 25.2C63.1656 24.5173 63.6669 23.9893 64.2963 23.616C64.9363 23.232 65.6403 23.04 66.4083 23.04C67.1016 23.04 67.7043 23.1787 68.2163 23.456C68.7389 23.7227 69.1549 24.0587 69.4643 24.464V23.184H71.3043V32H69.4643V30.688C69.1549 31.104 68.7336 31.4507 68.2003 31.728C67.6669 32.0053 67.0589 32.144 66.3763 32.144C65.6189 32.144 64.9256 31.952 64.2963 31.568C63.6669 31.1733 63.1656 30.6293 62.7923 29.936C62.4296 29.232 62.2483 28.4373 62.2483 27.552ZM69.4643 27.584C69.4643 26.976 69.3363 26.448 69.0803 26C68.8349 25.552 68.5096 25.2107 68.1043 24.976C67.6989 24.7413 67.2616 24.624 66.7923 24.624C66.3229 24.624 65.8856 24.7413 65.4803 24.976C65.0749 25.2 64.7443 25.536 64.4883 25.984C64.2429 26.4213 64.1203 26.944 64.1203 27.552C64.1203 28.16 64.2429 28.6933 64.4883 29.152C64.7443 29.6107 65.0749 29.9627 65.4803 30.208C65.8963 30.4427 66.3336 30.56 66.7923 30.56C67.2616 30.56 67.6989 30.4427 68.1043 30.208C68.5096 29.9733 68.8349 29.632 69.0803 29.184C69.3363 28.7253 69.4643 28.192 69.4643 27.584ZM77.108 30.368L79.604 23.184H81.54L78.18 32H76.004L72.66 23.184H74.612L77.108 30.368ZM90.9988 27.376C90.9988 27.7067 90.9774 28.0053 90.9348 28.272H84.1988C84.2521 28.976 84.5134 29.5413 84.9828 29.968C85.4521 30.3947 86.0281 30.608 86.7108 30.608C87.6921 30.608 88.3854 30.1973 88.7908 29.376H90.7587C90.4921 30.1867 90.0068 30.8533 89.3028 31.376C88.6094 31.888 87.7454 32.144 86.7108 32.144C85.8681 32.144 85.1108 31.9573 84.4388 31.584C83.7774 31.2 83.2548 30.6667 82.8708 29.984C82.4974 29.2907 82.3108 28.4907 82.3108 27.584C82.3108 26.6773 82.4921 25.8827 82.8548 25.2C83.2281 24.5067 83.7454 23.9733 84.4068 23.6C85.0788 23.2267 85.8468 23.04 86.7108 23.04C87.5428 23.04 88.2841 23.2213 88.9348 23.584C89.5854 23.9467 90.0921 24.4587 90.4548 25.12C90.8174 25.7707 90.9988 26.5227 90.9988 27.376ZM89.0948 26.8C89.0841 26.128 88.8441 25.5893 88.3748 25.184C87.9054 24.7787 87.3241 24.576 86.6308 24.576C86.0014 24.576 85.4628 24.7787 85.0148 25.184C84.5668 25.5787 84.3001 26.1173 84.2148 26.8H89.0948Z" fill="#FCF5E5"/>
</svg>
